<?xml version="1.0" ?><svg enable-background="new 0 0 320 320" id="Layer_1" version="1.1" viewBox="0 0 320 320" xml:space="preserve" xmlns="http://www.w3.org/2000/svg" xmlns:xlink="http://www.w3.org/1999/xlink"><g><g><path d="M160,121.5c48.7,0,88.2,38.8,88.2,86.5h9.8c0-53.1-43.9-96.2-98-96.2s-98,43.1-98,96.2h9.8    C71.7,160.3,111.3,121.5,160,121.5z" fill="#E53333"/></g><g><path d="M160,131.1c43.2,0,78.4,34.5,78.4,76.9h9.8c0-47.8-39.5-86.5-88.2-86.5S71.7,160.2,71.7,208h9.8    C81.5,165.6,116.7,131.1,160,131.1z" fill="#EF890F"/></g><g><path d="M160,140.7c37.8,0,68.6,30.2,68.6,67.3h9.8c0-42.5-35.1-76.9-78.4-76.9S81.5,165.5,81.5,208h9.8    C91.3,170.9,122.1,140.7,160,140.7z" fill="#E0D734"/></g><g><path d="M160,150.3c32.4,0,58.8,25.9,58.8,57.7h9.8c0-37.2-30.7-67.3-68.6-67.3S91.3,170.9,91.3,208h9.8    C101.1,176.2,127.5,150.3,160,150.3z" fill="#81D630"/></g><g><path d="M160,159.9c27,0,49,21.6,49,48.1h9.8c0-31.9-26.3-57.7-58.8-57.7s-58.8,25.8-58.8,57.7h9.8    C110.9,181.5,132.9,159.9,160,159.9z" fill="#2AD1C5"/></g><g><path d="M160,169.6c21.6,0,39.2,17.3,39.2,38.5h9.8c0-26.6-21.9-48.1-49-48.1s-49,21.5-49,48.1h9.8    C120.7,186.8,138.3,169.6,160,169.6z" fill="#2872C9"/></g><g><path d="M160,179.2c16.2,0,29.4,12.9,29.4,28.8h9.8c0-21.2-17.6-38.5-39.2-38.5s-39.2,17.2-39.2,38.5h9.8    C130.5,192.1,143.7,179.2,160,179.2z" fill="#B942CE"/></g><g><path d="M260,209.9h-72.5V208c0-14.8-12.3-26.9-27.4-26.9c-15.1,0-27.4,12.1-27.4,26.9v1.9H60V208c0-21.7,7.2-42.3,20.7-59.6    l3.1,2.3c-12.6,16.1-19.5,35.2-19.9,55.4h64.7c1-16.1,14.7-28.8,31.3-28.8s30.3,12.8,31.3,28.8H256c-1.1-51.1-43.7-92.3-96.1-92.3    c-16.9,0-33.6,4.4-48.3,12.8l-2-3.3c15.3-8.7,32.7-13.4,50.2-13.4c55.1,0,100,44,100,98.1V209.9z"/></g></g></svg>