<?xml version="1.0" ?><svg data-name="Layer 1" id="Layer_1" viewBox="0 0 150 150" xmlns="http://www.w3.org/2000/svg" xmlns:xlink="http://www.w3.org/1999/xlink"><defs><style>.cls-1{fill:#13818d;}.cls-2{clip-path:url(#clip-path);}.cls-3{fill:#44c2c7;}.cls-4{fill:#30a7ad;}.cls-5{fill:#fff;}</style><clipPath id="clip-path"><circle class="cls-1" cx="75" cy="75" r="65"/></clipPath></defs><title/><circle class="cls-1" cx="75" cy="75" r="65"/><g class="cls-2"><path class="cls-3" d="M45.15,77.53a0.87,0.87,0,0,1-.87-0.87v-3.1a0.87,0.87,0,0,1,1.74,0v3.1A0.87,0.87,0,0,1,45.15,77.53Z"/><path class="cls-3" d="M45.15,119.37a0.87,0.87,0,0,1-.87-0.87v-7a0.87,0.87,0,0,1,1.74,0v7A0.87,0.87,0,0,1,45.15,119.37Zm0-13.95a0.87,0.87,0,0,1-.87-0.87v-7a0.87,0.87,0,0,1,1.74,0v7A0.87,0.87,0,0,1,45.15,105.42Zm0-13.95a0.87,0.87,0,0,1-.87-0.87v-7a0.87,0.87,0,0,1,1.74,0v7A0.87,0.87,0,0,1,45.15,91.48Z"/><path class="cls-3" d="M45.15,129.45a0.87,0.87,0,0,1-.87-0.87v-3.1a0.87,0.87,0,0,1,1.74,0v3.1A0.87,0.87,0,0,1,45.15,129.45Z"/><path class="cls-4" d="M53.67,99.67a0.87,0.87,0,0,1-.87-0.87V95.7a0.87,0.87,0,0,1,1.74,0v3.1A0.87,0.87,0,0,1,53.67,99.67Z"/><path class="cls-4" d="M53.67,141.52a0.87,0.87,0,0,1-.87-0.87v-7a0.87,0.87,0,0,1,1.74,0v7A0.87,0.87,0,0,1,53.67,141.52Zm0-13.95a0.87,0.87,0,0,1-.87-0.87v-7a0.87,0.87,0,0,1,1.74,0v7A0.87,0.87,0,0,1,53.67,127.57Zm0-13.95a0.87,0.87,0,0,1-.87-0.87v-7a0.87,0.87,0,0,1,1.74,0v7A0.87,0.87,0,0,1,53.67,113.62Z"/><path class="cls-4" d="M53.67,151.59a0.87,0.87,0,0,1-.87-0.87v-3.1a0.87,0.87,0,0,1,1.74,0v3.1A0.87,0.87,0,0,1,53.67,151.59Z"/><path class="cls-3" d="M62.2,81.24a0.87,0.87,0,0,1-.87-0.87v-3.1a0.87,0.87,0,1,1,1.74,0v3.1A0.87,0.87,0,0,1,62.2,81.24Z"/><path class="cls-3" d="M62.2,123.08a0.87,0.87,0,0,1-.87-0.87v-7a0.87,0.87,0,1,1,1.74,0v7A0.87,0.87,0,0,1,62.2,123.08Zm0-13.95a0.87,0.87,0,0,1-.87-0.87v-7a0.87,0.87,0,0,1,1.74,0v7A0.87,0.87,0,0,1,62.2,109.13Zm0-13.95a0.87,0.87,0,0,1-.87-0.87v-7a0.87,0.87,0,1,1,1.74,0v7A0.87,0.87,0,0,1,62.2,95.18Z"/><path class="cls-3" d="M62.2,133.16a0.87,0.87,0,0,1-.87-0.87v-3.1a0.87,0.87,0,1,1,1.74,0v3.1A0.87,0.87,0,0,1,62.2,133.16Z"/><path class="cls-3" d="M70.72,82.22a0.87,0.87,0,0,1-.87-0.87v-3.1a0.87,0.87,0,0,1,1.74,0v3.1A0.87,0.87,0,0,1,70.72,82.22Z"/><path class="cls-3" d="M70.72,124.07a0.87,0.87,0,0,1-.87-0.87v-7a0.87,0.87,0,0,1,1.74,0v7A0.87,0.87,0,0,1,70.72,124.07Zm0-13.95a0.87,0.87,0,0,1-.87-0.87v-7a0.87,0.87,0,0,1,1.74,0v7A0.87,0.87,0,0,1,70.72,110.12Zm0-13.95a0.87,0.87,0,0,1-.87-0.87v-7a0.87,0.87,0,0,1,1.74,0v7A0.87,0.87,0,0,1,70.72,96.17Z"/><path class="cls-3" d="M70.72,134.14a0.87,0.87,0,0,1-.87-0.87v-3.1a0.87,0.87,0,0,1,1.74,0v3.1A0.87,0.87,0,0,1,70.72,134.14Z"/><path class="cls-4" d="M79.24,96.75a0.87,0.87,0,0,1-.87-0.87v-3.1a0.87,0.87,0,1,1,1.74,0v3.1A0.87,0.87,0,0,1,79.24,96.75Z"/><path class="cls-4" d="M79.24,138.59a0.87,0.87,0,0,1-.87-0.87v-7a0.87,0.87,0,1,1,1.74,0v7A0.87,0.87,0,0,1,79.24,138.59Zm0-13.95a0.87,0.87,0,0,1-.87-0.87v-7a0.87,0.87,0,1,1,1.74,0v7A0.87,0.87,0,0,1,79.24,124.65Zm0-13.95a0.87,0.87,0,0,1-.87-0.87v-7a0.87,0.87,0,1,1,1.74,0v7A0.87,0.87,0,0,1,79.24,110.7Z"/><path class="cls-4" d="M79.24,148.67a0.87,0.87,0,0,1-.87-0.87v-3.1a0.87,0.87,0,1,1,1.74,0v3.1A0.87,0.87,0,0,1,79.24,148.67Z"/><path class="cls-4" d="M87.77,88.55a0.87,0.87,0,0,1-.87-0.87v-3.1a0.87,0.87,0,1,1,1.74,0v3.1A0.87,0.87,0,0,1,87.77,88.55Z"/><path class="cls-4" d="M87.77,130.4a0.87,0.87,0,0,1-.87-0.87v-7a0.87,0.87,0,1,1,1.74,0v7A0.87,0.87,0,0,1,87.77,130.4Zm0-13.95a0.87,0.87,0,0,1-.87-0.87v-7a0.87,0.87,0,1,1,1.74,0v7A0.87,0.87,0,0,1,87.77,116.45Zm0-13.95a0.87,0.87,0,0,1-.87-0.87v-7a0.87,0.87,0,1,1,1.74,0v7A0.87,0.87,0,0,1,87.77,102.5Z"/><path class="cls-4" d="M87.77,140.47a0.87,0.87,0,0,1-.87-0.87v-3.1a0.87,0.87,0,1,1,1.74,0v3.1A0.87,0.87,0,0,1,87.77,140.47Z"/><path class="cls-3" d="M96.29,86.58a0.87,0.87,0,0,1-.87-0.87v-3.1a0.87,0.87,0,1,1,1.74,0v3.1A0.87,0.87,0,0,1,96.29,86.58Z"/><path class="cls-3" d="M96.29,128.43a0.87,0.87,0,0,1-.87-0.87v-7a0.87,0.87,0,1,1,1.74,0v7A0.87,0.87,0,0,1,96.29,128.43Zm0-13.95a0.87,0.87,0,0,1-.87-0.87v-7a0.87,0.87,0,1,1,1.74,0v7A0.87,0.87,0,0,1,96.29,114.48Zm0-13.95a0.87,0.87,0,0,1-.87-0.87v-7a0.87,0.87,0,1,1,1.74,0v7A0.87,0.87,0,0,1,96.29,100.53Z"/><path class="cls-3" d="M96.29,138.5a0.87,0.87,0,0,1-.87-0.87v-3.1a0.87,0.87,0,1,1,1.74,0v3.1A0.87,0.87,0,0,1,96.29,138.5Z"/><path class="cls-3" d="M104.82,78.45a0.87,0.87,0,0,1-.87-0.87v-3.1a0.87,0.87,0,0,1,1.74,0v3.1A0.87,0.87,0,0,1,104.82,78.45Z"/><path class="cls-3" d="M104.82,120.3a0.87,0.87,0,0,1-.87-0.87v-7a0.87,0.87,0,0,1,1.74,0v7A0.87,0.87,0,0,1,104.82,120.3Zm0-13.95a0.87,0.87,0,0,1-.87-0.87v-7a0.87,0.87,0,0,1,1.74,0v7A0.87,0.87,0,0,1,104.82,106.35Zm0-13.95a0.87,0.87,0,0,1-.87-0.87v-7a0.87,0.87,0,0,1,1.74,0v7A0.87,0.87,0,0,1,104.82,92.4Z"/><path class="cls-3" d="M104.82,130.37a0.87,0.87,0,0,1-.87-0.87v-3.1a0.87,0.87,0,0,1,1.74,0v3.1A0.87,0.87,0,0,1,104.82,130.37Z"/><path class="cls-5" d="M104.09,53.94H98.54a14.42,14.42,0,0,0-20.84-.62,14.44,14.44,0,0,0-28.88.51v0.12H45.91a14.34,14.34,0,0,0,0,28.67H50.7v0.27a14.45,14.45,0,0,0,28.44,3.57,14.41,14.41,0,0,0,20.91-3.85h4A14.34,14.34,0,0,0,104.09,53.94Z"/></g></svg>